<?xml version="1.0" encoding="UTF-8"?>
<svg id="Layer_1" data-name="Layer 1" xmlns="http://www.w3.org/2000/svg" xmlns:xlink="http://www.w3.org/1999/xlink" viewBox="0 0 183.98 49.68">
  <defs>
    <style>
      .cls-1 {
        fill: url(#linear-gradient-2);
      }

      .cls-2 {
        fill: none;
        stroke: #000;
        stroke-miterlimit: 10;
      }

      .cls-3 {
        fill: url(#linear-gradient);
      }
    </style>
    <linearGradient id="linear-gradient" x1="181.51" y1="4.54" x2="154.24" y2="29.14" gradientUnits="userSpaceOnUse">
      <stop offset=".17" stop-color="#fff" stop-opacity="0"/>
      <stop offset=".24" stop-color="#fdeed4" stop-opacity=".17"/>
      <stop offset=".33" stop-color="#fad698" stop-opacity=".42"/>
      <stop offset=".43" stop-color="#f8c265" stop-opacity=".63"/>
      <stop offset=".52" stop-color="#f7b23e" stop-opacity=".79"/>
      <stop offset=".6" stop-color="#f5a722" stop-opacity=".9"/>
      <stop offset=".67" stop-color="#f5a011" stop-opacity=".98"/>
      <stop offset=".72" stop-color="#f59e0b"/>
      <stop offset="1" stop-color="#f59e0b"/>
    </linearGradient>
    <linearGradient id="linear-gradient-2" x1="185.14" y1="1.1" x2="151.05" y2="32.29" gradientUnits="userSpaceOnUse">
      <stop offset=".22" stop-color="#fff" stop-opacity="0"/>
      <stop offset=".72" stop-color="#000"/>
      <stop offset="1" stop-color="#000"/>
    </linearGradient>
  </defs>
  <g>
    <path d="m28.34,37.95c0,1.1,0,5.46.11,6.41-.07.22-.29.4-.7.4-.44-.62-1.5-1.91-4.69-5.53l-8.5-9.68c-.99-1.14-3.48-4.14-4.25-4.95h-.07c-.15.44-.18,1.28-.18,2.38v7.99c0,1.72.07,6.49.66,7.59.26.4.95.62,1.87.7l1.14.11c.22.29.18.73-.07.92-1.65-.07-2.93-.11-4.29-.11-1.54,0-2.53.04-3.81.11-.26-.18-.29-.7-.07-.92l.99-.11c.84-.07,1.43-.33,1.61-.73.51-1.32.48-5.79.48-7.55v-10.59c0-1.03-.04-1.8-.81-2.64-.51-.51-1.39-.77-2.27-.88l-.62-.07c-.22-.22-.22-.77.07-.92,1.54.11,3.48.11,4.14.11.59,0,1.21-.04,1.69-.11.73,1.87,5.09,6.71,6.27,8.06l3.56,4c2.49,2.86,4.33,4.87,6.05,6.63h.07c.15-.18.15-.77.15-1.54v-7.84c0-1.72-.04-6.49-.73-7.59-.22-.33-.81-.55-2.27-.73l-.62-.07c-.26-.22-.22-.81.07-.92,1.69.07,2.93.11,4.32.11,1.58,0,2.53-.04,3.78-.11.29.18.29.7.07.92l-.51.07c-1.17.18-1.91.48-2.05.77-.62,1.32-.55,5.86-.55,7.55v8.76Z"/>
    <path d="m48.06,36.81c0,4.58-3.15,7.88-7.73,7.88-4.22,0-7.51-2.97-7.51-7.55s3.48-7.92,7.81-7.92,7.44,3.08,7.44,7.59Zm-7.88-6.49c-2.42,0-4.21,2.31-4.21,6.34,0,3.33,1.5,6.93,4.73,6.93s4.21-3.37,4.21-6.19c0-3.12-1.25-7.07-4.73-7.07Z"/>
    <path d="m55.94,31.28c-.62,0-.66.11-.66.88v6.85c0,2.13.26,4.07,2.68,4.07.37,0,.7-.07.99-.18.33-.11.81-.51.92-.51.29,0,.44.4.37.62-.66.77-1.98,1.69-3.85,1.69-3.15,0-3.81-1.76-3.81-3.96v-8.39c0-.99-.04-1.06-.77-1.06h-1.03c-.22-.15-.26-.55-.11-.77,1.06-.33,1.98-.81,2.35-1.14.48-.44,1.17-1.43,1.54-2.16.18-.07.62-.07.77.18v1.65c0,.66.04.7.66.7h4.07c.44.33.37,1.32.04,1.54h-4.14Z"/>
    <path d="m65.36,34.79c-.95,0-.99.07-.99.99,0,3.7,2.16,6.85,6.08,6.85,1.21,0,2.24-.37,3.37-1.8.37-.11.62.11.66.44-1.21,2.49-3.85,3.41-5.75,3.41-2.38,0-4.25-1.03-5.31-2.42-1.1-1.43-1.54-3.15-1.54-4.76,0-4.51,2.97-8.28,7.37-8.28,3.15,0,5.2,2.16,5.2,4.36,0,.51-.07.81-.15.95-.11.22-.62.26-2.16.26h-6.78Zm2.27-1.1c2.71,0,3.52-.15,3.81-.37.11-.07.22-.22.22-.7,0-1.03-.7-2.31-2.82-2.31s-4.03,1.98-4.07,3.19c0,.07,0,.18.26.18h2.6Z"/>
    <path d="m88.6,38.68c0,3.85.07,4.36,2.2,4.58l1.17.11c.22.15.15.81-.07.92-2.09-.07-3.34-.11-4.8-.11s-2.75.04-5.09.11c-.22-.11-.29-.73,0-.92l1.32-.11c2.09-.18,2.27-.73,2.27-4.58v-16.38c0-1.14,0-1.17-1.1-1.17h-2.02c-1.58,0-3.59.07-4.51.92-.88.81-1.25,1.61-1.65,2.53-.29.22-.81.04-.95-.26.59-1.65,1.14-3.99,1.39-5.46.11-.07.59-.11.7,0,.22,1.17,1.43,1.14,3.12,1.14h14.84c1.98,0,2.31-.07,2.86-1.03.18-.07.59-.04.66.11-.4,1.5-.66,4.47-.55,5.57-.15.29-.77.29-.95.07-.11-.92-.37-2.27-.92-2.68-.84-.62-2.24-.92-4.25-.92h-2.6c-1.1,0-1.06.04-1.06,1.25v16.31Z"/>
    <path d="m103.95,36.59c.55-.18.59-.51.62-1.06l.04-1.69c.04-1.36-.4-3.19-2.68-3.19-1.03,0-2.27.51-2.35,1.65-.04.59-.07,1.03-.37,1.25-.55.44-1.54.7-2.09.7-.33,0-.51-.18-.51-.51,0-1.91,4.14-4.51,6.82-4.51s3.92,1.54,3.81,4.29l-.22,6.38c-.07,1.69.26,3.19,1.69,3.19.37,0,.7-.11.92-.22.18-.11.37-.26.48-.26.15,0,.26.22.26.48,0,.18-1.28,1.61-3.08,1.61-.88,0-1.76-.33-2.38-1.14-.15-.22-.37-.51-.59-.51-.26,0-.7.33-1.43.73-.81.44-1.61.92-2.64.92s-1.94-.29-2.57-.84c-.7-.62-1.14-1.54-1.14-2.57,0-1.43.7-2.27,3.04-3.12l4.36-1.57Zm-2.27,6.45c.73,0,1.87-.55,2.24-.92.44-.44.48-.95.48-1.72l.07-2.16c0-.4-.15-.48-.37-.48s-.84.15-1.5.37c-2.16.73-3.23,1.28-3.23,2.71,0,.62.44,2.2,2.31,2.2Z"/>
    <path d="m113.3,23.51c0-2.16-.04-2.38-1.14-3.04l-.37-.22c-.18-.11-.18-.62,0-.73.92-.29,2.64-.84,3.96-1.54.15,0,.29.07.37.22-.04,1.1-.11,2.93-.11,4.54v12.57c0,.48.04.55.66.55.81,0,1.5-.4,2.49-1.43l1.5-1.61c1.03-1.1,1.28-1.5,1.28-1.69s-.18-.29-.81-.37l-.88-.11c-.33-.11-.33-.81,0-.92h.84c1.61,0,3.78-.07,5.83-.29.26.11.29.73.07.92l-1.17.22c-.73.15-1.36.51-2.31,1.28-1.43,1.14-2.68,2.46-3.33,3.08-.44.4-.48.59-.26.88.62.84,1.21,1.54,2.46,2.93,1.43,1.61,2.71,3.04,3.45,3.74.51.48,1.25.7,1.91.81l.51.07c.26.18.22.81-.07.92-1.06-.07-2.31-.11-3.48-.11-1.47,0-2.75.04-3.81.11-.29-.15-.33-.77-.07-.92l.66-.11c.55-.07.92-.15.92-.37s-.15-.48-.62-1.03l-3.92-4.54c-.33-.37-.73-.51-1.14-.51-.66,0-.7.11-.7,1.25v2.02c0,2.64.07,3.01,1.39,3.19l.88.11c.26.18.18.81-.07.92-1.21-.07-2.27-.11-3.56-.11s-2.42.04-3.52.11c-.26-.11-.33-.73-.04-.92l.81-.11c1.36-.18,1.39-.55,1.39-3.19v-16.57Z"/>
    <path d="m132.5,34.79c-.95,0-.99.07-.99.99,0,3.7,2.16,6.85,6.08,6.85,1.21,0,2.24-.37,3.37-1.8.37-.11.62.11.66.44-1.21,2.49-3.85,3.41-5.75,3.41-2.38,0-4.25-1.03-5.31-2.42-1.1-1.43-1.54-3.15-1.54-4.76,0-4.51,2.97-8.28,7.37-8.28,3.15,0,5.2,2.16,5.2,4.36,0,.51-.07.81-.15.95-.11.22-.62.26-2.16.26h-6.78Zm2.27-1.1c2.71,0,3.52-.15,3.81-.37.11-.07.22-.22.22-.7,0-1.03-.7-2.31-2.82-2.31s-4.03,1.98-4.07,3.19c0,.07,0,.18.26.18h2.6Z"/>
    <path d="m145.84,33.66c0-1.43,0-1.61-.99-2.27l-.33-.22c-.15-.15-.15-.55.04-.66.84-.29,2.79-1.25,3.7-1.8.18.04.29.11.29.26v2.13c0,.18.04.29.11.33,1.28-1.06,2.68-2.2,4.03-2.2.92,0,2.47,1.15,1.65,1.47-.95.36-.43.39-.85.37-.37-.02-.35-.02-.61-.17-.55-.37-2.03.43-2.54.64-.54.22-1.03.33-1.32.73-.37.51-.48,1.58-.48,2.82v4.98c0,2.64.07,3.08,1.47,3.19l1.32.11c.26.18.18.81-.07.92-1.72-.07-2.79-.11-4.07-.11s-2.42.04-3.37.11c-.26-.11-.33-.73-.07-.92l.7-.11c1.36-.22,1.39-.55,1.39-3.19v-6.41Z"/>
  </g>
  <path class="cls-3" d="m163.23,26.67l20.76-19.23-.8-.87-4.8-4.83-20.57,19.06c1.6.98,4.4,3.03,5.41,5.87Z"/>
  <path class="cls-2" d="m156.65,20.54s5.24,1.78,6.63,7.38"/>
  <path d="m155.08,26.29s1.92.69,2.39,2.65l-3.31.62.93-3.26Z"/>
  <path class="cls-1" d="m153.64,31.13c-.28,0-.54-.11-.73-.32-.24-.26-.33-.63-.22-.97l2.95-9.54c.05-.17.15-.32.28-.44L177.95-.57c.2-.18.46-.27.72-.27.26.01.51.12.7.32l6.79,7.32c.18.19.28.45.27.72,0,.27-.12.52-.32.7l-22.04,20.43c-.13.12-.29.2-.46.24l-9.74,2.22c-.07.02-.15.03-.22.03Zm3.83-9.99l-2.36,7.63,7.79-1.77,21.11-19.56-5.43-5.86-21.11,19.56Z"/>
</svg>